<svg xmlns="http://www.w3.org/2000/svg" viewBox="0 0 600 600">


  <path d="M31.23 80.55a30.47 30.47 0 0 1 3.24 7.53 30.82 30.82 0 0 1 .65 3.23c.18 1.16.27 2.22.35 3.36.22 3.17-.11 4-.29 4.41-1.18 2.55-4.9 2.88-4.79 3.43s4.83-.34 5.23.73-4.06 3.75-3.82 4.14 3.12-1.62 3.73-1c1.21 1.21-7.39 11.48-6.82 12 .39.33 4.5-4.39 5.23-3.87 1.22.87-8.2 15.71-7.14 16.43.59.4 4.08-4 4.69-3.55s-3.68 7-2.78 7.78c.65.53 4.39-3.67 4.87-3.28s-3 4-4.37 9.74c-.75 3.24-.7 6.75 0 6.92 1 .25 3.63-6.69 3.73-6.64a26.17 26.17 0 0 0-2.64 10c-.1 2.82.39 6 1 6.05.9.06 1.87-6.5 2.09-6.46s-.79 5.75-1 12.91c-.09 3.19-.2 7 .57 7.12 1 .19 3-6.89 3.28-6.8s-1.55 4.05-.63 8.69c.3 1.52 1 3.86 1.83 3.84 1.39 0 2.17-7.36 2.58-7.31s-.7 4.49.63 9.64c.95 3.41 2.78 6.59 3.35 6.41.83-.25-.43-6.7-.19-6.74s.46 4.25 2.77 8.69c1.79 3.45 4.49 6.38 5 6 .29-.17-3-3.43-2.65-7.62.11-1.24.61-3.3 1.45-3.38 1.58-.16 4.68 6.53 4.3 13.22-.16 2.92-.84 3.16-1.06 7.36-.15 2.84.13 3.39.06 8-.05 3.58-.22 4-.12 6.05.18 3.73.79 6.76 1 6.74s-.34-2.73.44-6.3c.71-3.23 2.23-6 2.56-5.86s-.74 3.55-1.37 6.8c-2.52 12.89 1.84 24.23 2 24.2a26.26 26.26 0 0 1-.19-7c.28-2.5.93-4.84 1.25-4.8s-.59 4.46.81 10.29a59.86 59.86 0 0 0 2.12 6.36 29.32 29.32 0 0 0 2.18 5.18 54 54 0 0 1-1.12-5.61c-.27-2.65-.09-5.1.12-5.11s.42 4.9 2.12 12.1a53 53 0 0 0 1.75 6c1.47 4.09 3.14 7.06 3.31 7a36.86 36.86 0 0 1-2.12-7.86c-.37-3-.15-5.83.19-5.86s.5 4.75 3.06 11a50.46 50.46 0 0 0 3.06 6.18c.57 1 1.58 2.5 3.62 5.55 0 0 2.58 3.87 2.68 3.8a16.24 16.24 0 0 1-2.93-6.36c-.28-1.52-.53-3.69-.12-3.8.77-.21 2.5 7.55 7.3 17.46a26.19 26.19 0 0 1 2.55 6.79c.65 3.18.09 4 .87 7.1.22.9.29.9 2.75 6.66 1.54 3.61 2.09 4.95 3.19 7.1 1.41 2.77 2.36 4.21 2.46 4.15a22.4 22.4 0 0 1-1.69-5.79c-.15-1.38-.16-3.18.14-3.24s.08 3.52 2.27 7c1.29 2 2.31 2.3 3.24 4.49a11.05 11.05 0 0 1 .82 4.25c.07 2.64 1.29 6.41 3.72 14 .69 2.13 2.84 8.66 9.19 23.43 4.81 11.21 5.84 12.73 7.73 18.53a133.42 133.42 0 0 1 3.71 14.72 267.15 267.15 0 0 1 4.24 25.52c.77 6.79 1.08 12.4 1.69 23.61.44 7.94.25 6.74.69 15 .79 14.74 1.34 17.72 1.14 25.81a116.8 116.8 0 0 1-1.71 14.9c0 .21 0-.05-2.73 8.76-.51 1.64-1 3.2-2.39 3.87a5.57 5.57 0 0 1-3.87-.11c-2.43-.69-2.53-1.69-3.87-1.82-2.58-.25-5 3.23-6.71 5.57-2.06 2.9-2.14 4.31-4.21 5.57a10.56 10.56 0 0 1-3.62 1.37c-1.43.2-1.81-.13-2.95.2s-1.3.74-3.15 2.21c-2.74 2.18-3 1.92-3.82 3a8.84 8.84 0 0 0-1.47 3.62c0 .15-.74 3.45 0 3.75.48.2 1-1.71 3.08-3.42 1.25-1 3.34-2.24 4.15-1.61.67.51-.13 1.77.34 3.15.73 2.15 3.52 3.86 5.29 3.15.62-.25 1-.93 1.07-.87s-.85 1-.87 2.14.92 2.38 1.41 2.28.23-.94.67-1.94c1-2.28 4.21-3.34 4.76-2.75.27.29-.3.8-.2 2a4.46 4.46 0 0 0 .8 2.08 5.08 5.08 0 0 0 3.22 1.68c3.5.79 6.2 1.39 9.18.2 1.38-.55 1.34-.9 5-2.75a11.91 11.91 0 0 1 2.95-1.21c1.9-.42 2.91.06 4.82.2a15.76 15.76 0 0 0 6.63-1c2.18-.79 4.23-1.54 5.63-3.48.85-1.18 1.27-2.54 2.75-3.08.77-.28 1.48-.21 1.68-.67s-.58-1-.87-2.08c-.35-1.35.6-1.7.54-3.42s-1-2.58-.54-3.08.86 0 1.54-.34a2.81 2.81 0 0 0 1.14-1.94c.43-1.78-.41-2.5.2-3.75.38-.78 1-1.15.94-1.27s-2.32 1.52-2.95 1c-.46-.38-.08-2 .74-3.08.65-.87 1.23-1 1.41-1.74s-.38-1.11-.2-1.88c.27-1.17 1.84-1.64 1.74-1.88s-2.21.57-2.48.13 2.83-2.91 2.48-3.48-2.56.49-2.68.2 1.66-.82 1.88-2.08c.13-.76-.44-1-.34-1.74.2-1.37 2.34-2 2.21-2.35s-2 .26-2.21-.13c-.27-.56 3.25-2.33 2.95-3.35-.14-.49-1.16-.67-1.74-.67s-.9.4-1.14.27c-.42-.24-.06-1.56.13-2.55.46-2.37-.14-2.51.13-5 .24-2.16.73-2.16 1.68-6 .43-1.73.66-3.06.8-3.89.46-2.69.35-3.24.8-7.24.48-4.18.65-4 .8-6.5a33.12 33.12 0 0 1 .34-4.42c.32-1.77.81-4.36 2.48-5a10.79 10.79 0 0 1 1.27-.27c0-.14-2.9.27-3.22-.54-.12-.3.39-.87 1.41-2a20.36 20.36 0 0 1 2.35-2.28c.81-.65 1.32-.8 1.27-.94-.13-.42-4.51.78-4.69.27s3.2-1.81 3-2.41-3.84.06-3.89-.2 3.4-.25 3.55-1.14c.1-.57-1.19-1.35-2.28-1.61-1.26-.29-2 .49-2.35.13s.14-1.88 1.21-2.48c1.36-.77 2.87.33 3.28-.27s-.3-1.74-1.21-2.41-1.76-.47-2-1 1.07-1.11 1.07-2.22c0-.65-.44-.86-.77-1.63a4.71 4.71 0 0 1 0-3.1c.94-4-2.74-22.94-1.81-23.15.38-.08 1.18 3 1.63 2.93.94-.19-1.21-13.66-.26-13.85.46-.09 1.33 3 1.72 2.93.69-.17-1.32-9.86-.52-10.07.56-.15 1.92 4.35 2.5 4.22 1-.25-1.67-15.32-1.2-15.4a11.89 11.89 0 0 0 1.63 4c1.1 1.5 2.21 1.93 2.67 3.53a5 5 0 0 1 .09 2.15c-.35 2.65.57 4.73 1.63 9.64 1 4.56.47 4 1.72 10.67.7 3.73 1.09 5.15 1.63 7.74.78 3.72 1.11 6.29 2.24 16.44s1.68 15.18 2 18.41c.91 9.87 1.36 14.8 1.46 20.39.15 8.51-.46 8.4.09 13.34.12 1.07 1 9.06 1.12 13.85a29.42 29.42 0 0 1-.17 3.87 33.63 33.63 0 0 1-.69 3.87 51.53 51.53 0 0 1-1.38 5c-.83 2.51-.85 1.94-1.81 4.73a12.32 12.32 0 0 1-1.55 3.61 7.78 7.78 0 0 1-2 2 9.71 9.71 0 0 1-2 .95c-3.39 1.38-3.11 1.3-3.36 1.38a25.93 25.93 0 0 1-4.9 1c-.93.08-1.61.08-2.07.6s-.24.77-.34 2.07a20.09 20.09 0 0 1-.69 3.79 8.71 8.71 0 0 1-.6 1.81 8.11 8.11 0 0 1-2 2.41c-1.16 1-1.41 1-2.41 1.81a9.32 9.32 0 0 0-2.93 3.79 13.19 13.19 0 0 0-.52 3.53 7.12 7.12 0 0 0 .34 3.53c.21.51.62 1.27.86 1.2s-.13-1.65.34-3.18c.56-1.81 2-3.24 2.58-3 .36.15 0 .85.52 1.72.67 1.11 1.86 1 2.07 1.81.1.42-.18.51-.52 1.63a5.82 5.82 0 0 0-.34 2.32c.12 1.13.69 1.17.95 2.32.2.9-.08 1.19-.26 2.75a12.2 12.2 0 0 0 0 3.44 10.4 10.4 0 0 0 3.7 6.2c.67.57.8.55.86.52.41-.23-.59-2.29-.95-5.51-.29-2.67.2-3 .34-3.1.48-.26.89.33 2.32.69a7 7 0 0 0 3.7-.09 3.81 3.81 0 0 0 1.72-.86 3.34 3.34 0 0 0 .6-1.29c.07 0-.37 1.92-.6 3.7-.29 2.25-.48 3.66 0 5.25.71 2.35 2.55 4.08 2.93 3.87s-.25-.92-.43-2.67a11 11 0 0 1 .6-4.73c.37-1 .73-2 1.38-2.07s1.14 1.08 2.07 1.81c.43.34 1.94 1.32 10-1.63 5.66-2.08 6.52-3.15 6.88-4a9.49 9.49 0 0 0 1-3.61c0-.69-.14-1.38.17-1.55s.79.41 1.72.86c1.09.52 1.88.06 2.15.52s-.07.63-.17 1.12c-.3 1.42.92 2.81 1.63 3.61 1.24 1.41 3.12 2.61 3.53 2.24s-.36-.91-.69-2.32c-.6-2.57.3-5.39 1.2-5.51.33 0 .42.3.95.43.74.19 1.56-.24 2.58-1.12 1.56-1.34 3.31-2.85 4-5.59.35-1.31.23-2.71 0-5.51a12.68 12.68 0 0 0-.95-4.47c-.54-1.17-.88-1.32-1.46-2.41-.75-1.41-.8-2.37-1.2-5a54 54 0 0 1-1-8.52c0-1 0-2.5.95-3.1.44-.28.76-.15 1.29-.34 1.26-.46 1.76-2 2.07-2.93 1.65-4.8 3.6-6.94 2.93-7.49-.46-.37-1.64.31-2.24.77-1.5 1.18-1.63 2.89-1.89 2.84s-.77-2.67.6-4.39 4.09-1.76 4-2.15-3.62 0-4-1c-.49-1.26 3.57-3.86 3.27-4.3s-2.74 1.07-2.93.77 3.25-2.8 3-3.18-3.68 1.55-4 1.12c-.11-.18.79-.65 1.55-1.81a7.43 7.43 0 0 0 1-3 17.39 17.39 0 0 0 .17-3.7 43.09 43.09 0 0 1 .43-5.25c.16-1.62.62-6.33.6-11.44 0-5.64-.6-6.21.17-8.69s2.14-4.61 1.63-5-1.79 1-2.07.77c-.49-.45 3.43-4.93 2.75-5.68-.5-.55-3.25 1.14-3.36.95a14.55 14.55 0 0 0 2.75-2.58c1-1.4 1.37-3.17.95-3.44-.59-.38-2.79 2.26-3 2.07s1.75-2 2.75-5a9.44 9.44 0 0 0 .43-5.42c-.14 0-.79 2.17-1 2.62l-.08.13-.31.51c-.16.25-1.64 2.12-1.84 2s.54-1 1.12-2.58c.08-.23 1.23-3.43.52-3.87s-2.26 2.42-3 2.07c-.33-.15-.25-.77-.26-2.75s-.08-1.25-.09-3.36a26.9 26.9 0 0 1 .17-4.47 11.44 11.44 0 0 1 1.29-3.44c2.92-5.47 1.89-23.35 3.18-23.49.6-.06 1.26 3.69 1.89 3.61s1.28-3 .69-5.68c-.64-2.9-2.46-3.12-3.53-5.59-2-4.59 1.11-10.23 1.46-10.15s-1 5.34-.09 5.68c.73.26 3-2.24 3-5 0-3.5-3.52-5.77-3-6.37.38-.44 2.71.34 4 2.15s.83 4.09 1.2 4.13 1.61-2.35 1.29-4.9c-.66-5.3-7.48-7.72-7-8.69.37-.72 4.44-.11 5.77 2.24.43.75.45 1.48.6 1.46s.83-2.93-.26-5.42c-.94-2.15-2.37-2.34-4.56-4.56-1.77-1.8-2.57-3.42-4.13-6.63-1.74-3.56-3.74-9-2.75-9.55.33-.19.73.29 2.32 1.12a26.78 26.78 0 0 0 4.13 1.63c2.53.78 2.74.3 7.49 1.2a12.13 12.13 0 0 0 2.5.34 11.53 11.53 0 0 1-2.67-1.46c-.72-.61-1.33-1.4-1.2-1.55s1.3.9 3.27 1.72a12.67 12.67 0 0 0 5.08.95c2.19-.06 4-.71 4-.95s-1.88.18-4-.77c-1-.48-2-1.24-1.89-1.46s2.23.85 5.08 1c3.86.25 6.93-1.44 6.88-1.63a7.17 7.17 0 0 1-3.1-.17c-1-.36-2-1-1.89-1.29.19-.56 4.7.5 5.59.69 11.54 2.44 40.34-8.56 52.75-13a358.3 358.3 0 0 1 28.14-8.86 6.4 6.4 0 0 1 2.58-.69c.51 0 1.21 0 1.46.34s-.19 1.1-.43 1.72c-.61 1.58.17 3.09.69 4.56.87 2.47.28 2.87.95 7a47.27 47.27 0 0 0 2.41 8.78c1.31 3.73 2.42 5.87 5.51 12 6 12 5.48 11.27 6.24 12.51 3.17 5.2 6.29 8.39 10.89 13a144.82 144.82 0 0 0 21.65 17.72c4.76 3.25 8.11 5.21 14.56 9 21.56 12.63 25.93 12.93 32.28 20.38 3 3.56 5.32 7.34 8.61 12.79 3.06 5.06 4.91 8.79 8.36 15.7a155.92 155.92 0 0 1 6.71 15.45 32.22 32.22 0 0 1 2 16c-1.27 14.33.4 14.14-1.27 21.14a121 121 0 0 1-3.92 11.9c-1 2.74-.61 7-3.16 8.36a9.66 9.66 0 0 1-2.28.76 9.52 9.52 0 0 1-4.56.13c-2.4-.65-2.24-2.18-4.56-2.79a6.66 6.66 0 0 0-4.18.38c-.55.24-1.53.75-4.05 4.05-2.71 3.56-2.49 4.16-3.92 5.06a25.41 25.41 0 0 1-4.94 1.52c-2.88.75-3.2.75-4.05 1-1.31.41-1.57.82-6.58 4.56-1.89 1.41-2.41 1.78-2.79 2.66-.85 2-.1 4.46.63 4.56s.81-2.17 2.91-3.92c1.82-1.52 4.57-2.18 5.44-1.27s-.53 2.26.25 3.92c.63 1.34 2.16 1.85 3.54 2.28 4.32 1.35 8 .09 8.23.76.09.33-.83.59-1.65 1.52-2 2.33-1.41 6.62-.51 6.84.67.16 1-2.05 3.42-3.54.84-.53 2.21-1.53 3.54-1.14 1 .28.92 1 1.9 1.65 1.51 1 2.92.3 6.58.25 2.69 0 2.23.36 4.43.25 2.44-.12 5.44-.26 6.71-2.15.68-1 .54-2.05 1.39-2.41s1.77.29 2.15.51c3.21 1.83 10-.24 13.8-3.54 2.11-1.82 2-2.91 5.06-5.32 2.55-2 4-2.35 5.06-2 .93.28 1.42 1 1.9.76.75-.38-.05-2.42 1-3.29.5-.41.89-.13 1.39-.38 1.66-.82.46-5.32.76-10.25.18-2.93.7-2.87 1.39-7a58.08 58.08 0 0 0 .63-11.77c-.05-5.79.54-5.06 1.73-19.09 1.07-12.6 1.29-21.48 2.52-21.54.68 0 1.22 2.64 1.75 2.52s.63-3.63.2-6.65c-.17-1.22-.43-2.4-.2-2.47s1.41 2.72 1.92 2.58c.35-.1.41-1.61.05-3-.77-3.13-3.22-4.76-2.93-5.1s1.61.36 2.66 1.3c.63.57.9 1 1.08 1s0-1.86-.33-2.87c-1.59-5.23-7.25-7.77-6.89-8.4.18-.31 1.71.11 2.93.76 2.15 1.14 3 2.75 3.36 2.55s.14-1.7-.54-3.14c-1.87-3.93-6.26-5.16-6.07-5.58s2.31.24 4.23 1.25c1.07.56 1.71 1.22 1.79 1.14a12.72 12.72 0 0 0-2.49-2.87c-3.72-3.58-7.37-5.26-7.21-5.58s3 1.11 3.25.65-2.41-2.14-5.37-5.37c-1.57-1.71-1.14-1.6-5.8-8.08-2.19-3-2.94-4-2.66-4.34.48-.6 3.46 1 6.93 3a156 156 0 0 1 18.92 12.93c6.61 5.45 9.92 8.18 12 11 1.31 1.82 3.58 5.31 7.25 17.66 1.92 6.45 2 7.84 5.52 22.86 1.78 7.58 2.47 15.42 4.73 22.86a34.39 34.39 0 0 1 .47 14c-.18 1.12-.55 2.81-1.89 3.63a4.62 4.62 0 0 1-2.88.46c-1.37-.16-1.39-.69-3.15-1.07a6.6 6.6 0 0 0-3.07-.07 6.43 6.43 0 0 0-1.72.71c-2 1.25-1.54 3.86-2.86 7.22a19.33 19.33 0 0 1-4.22 6.15c-2.23 2.43-2.81 2.12-4.43 4.22a18.26 18.26 0 0 0-3 6.22c-.89 2.84-1.49 4.75-.5 6.43.71 1.2 1.9 2.07 2.22 1.86s-.48-1.21-.14-2.5 1.71-2.39 2.5-2.14c.29.09.26.28.71.71.93.89 1.62.66 2 1.22s-.4 1.34-.36 2.93a5 5 0 0 0 1.36 3.15c.65.73 1.76 1.56 2.14 1.29s-.62-1.58-.14-3.07a3.16 3.16 0 0 1 2.29-2.07c1.1-.2 1.7.51 2.93.93s2.67.14 5.29-.5a22.63 22.63 0 0 0 7.86-3.5l2.29-1.79c.4-.48.9-1 1.07-.93s-.62 1.44-.57 3c.07 2.29 2.05 4.22 2.57 4 .33-.14-.12-1 .43-2.36a3.21 3.21 0 0 1 1.43-1.72c.73-.34 1.4-.12 2.79.29 2.74.8 4.12 1.2 4.65 1.14s.51-.14 3.86-2.14a19.06 19.06 0 0 1 3.79-2 12.36 12.36 0 0 1 3.07-.57c4.38-.59 7-12.85 8.15-18.3 1.7-8 2.53-12.12 1.38-16.81-.55-2.23-1.76-5.75-1.28-6s2.08 2.94 2.45 2.77c.7-.32-4.31-12-3.51-12.35.56-.27 3.62 5.07 3.94 4.9s-3.78-6.1-5.43-14.58c-.17-.85-.39-3.16-.85-7.77-.36-3.61-.67-7.06-1.17-13-1.19-14.19-.87-12-1.28-15.75-.34-3.11-.41-6.25-.74-9.37-.25-2.31-.57-4.77-.11-4.9s1.49 2.56 1.81 2.45.11-3.23-1.49-6.17c-2.33-4.29-6.41-6-6.07-6.6.2-.34 1.72 0 2.87.64s1.78 1.62 2 1.49 0-2.22-1.06-3.83c-2.71-4.17-9-3.82-8.94-4.68 0-.66 3.77-1.82 6.49-.21s3.32 5 3.83 4.79-.33-2.81.32-3.09c.45-.19 1.39.86 1.92 1.7.73 1.17.76 2.14 1 2.13s.46-1.41.32-2.87a10.34 10.34 0 0 0-1.4-4.19 19.2 19.2 0 0 0-2.54-3.16 6.28 6.28 0 0 1 3.08 2.1c1.83 2.12 2 4.29 2.32 4.23s.68-2.49-.31-4.84c-.9-2.14-2.6-3.53-2.47-3.66s1.38 1.26 1.75 1c.8-.5-3.39-7.79-2.37-8.5.6-.42 2.53 1.82 3 1.44.86-.64-3.46-7.84-3.3-7.94s2.63 4.15 3 4-2.27-6-1.6-6.39c.34-.19 1.21 1.23 1.65 1 .63-.28-.35-3.51-1.29-7.63-.77-3.38-.75-4-1.34-6.8a425.57 425.57 0 0 0-12.1-44c-5.47-16-10.44-27.1-9.84-27.36s5.47 10.62 6.3 10.28-5-15.86-6.1-18a37.01 37.01 0 0 0-1.32-2.58c-.32-.45-.69-.89-.57-1.05s1 .47 1.33.28c.76-.47-1.7-6.78-6.66-15.13-3.87-6.51-7.31-11-6.9-11.29.26-.21 1.85 1.3 3.37 2.74 2.68 2.54 3.6 3.9 3.84 3.76.68-.39-5-11.62-5.88-13.25-9.68-18.93-11-20.48-15-29.3a226.68 226.68 0 0 1-7-17.19c-2.07-5.7-3.1-8.55-3.46-10-.61-2.53-.79-4.14-2-6.35-1.86-3.28-4.32-4.77-4.09-5.06s2.88.92 4.95 3.23c1.45 1.62 2 3.09 2.15 3s-.78-3.82-2.44-7.2c-2.27-4.64-4.54-5.24-8.41-10.72-2.48-3.51-1.47-3-3.62-5.93-3.17-4.29-4.75-4.51-10.77-11a46.55 46.55 0 0 0-3.63-3.7 21.91 21.91 0 0 0-6.14-4.29c-3.08-1.32-5.43-1.17-5.42-1.52s2.42-.84 5-.33 4.15 1.92 4.36 1.65-1.14-2.42-3.44-3.57c-4.21-2.11-9.06.36-9.31-.4-.14-.42 1.26-1.52 2.71-1.85a16.19 16.19 0 0 1 2.58-.2c1.5-.06 1.74 0 1.78-.13.18-.48-2.7-2.88-6.21-3.17-3.66-.3-6.38 1.83-6.67 1.32s1.06-1.74 2.71-2.58c2.47-1.26 4.64-.75 4.69-1.12s-3.07-2.09-6.8-1.78c-4.6.38-7.58 3.49-8.13 2.84-.28-.34.32-1.44 1.06-2.11 1.42-1.29 3.37-1.06 3.37-1.26s-2.32-.88-5.29-.4c-3.46.57-4.29 2.13-7.4 2.11a16.21 16.21 0 0 1-3.3-.59c-3.06-.7-4.59-1-7.33-1.92-6.35-2-22.6-2.83-25.57-3a222.65 222.65 0 0 0-27.94.17c-10 .71-8.84 1.39-22.39 2.78-9.93 1-17.54 1.38-32.28 2.08-2 .1-7.3.3-17.88.69-13.56.51-15 .53-17.7.35-4.25-.29-7.82-.83-12.88-.85a44.45 44.45 0 0 1-4.93-.21c-2.21-.23-2.82-.47-5.85-.82a21.41 21.41 0 0 1-3.39-.41c0-.24 4.21-.51 6.57-.62 3-.14 4-.07 4-.31.07-.47-3.7-1.58-7.29-2.16a49.39 49.39 0 0 0-7.7-.51c-5.61 0-8.66.64-8.73.31s3-1.55 6.67-1.85 6.28.51 6.36.21-3.58-2.16-7.8-2.77a22.75 22.75 0 0 0-7.92.26 48.71 48.71 0 0 0-5.33 1.69c-.07-.17 5.17-2.4 5-2.77s-3.87 1.1-9.44 2.26a45.52 45.52 0 0 1-11.29 1.33c-3.05-.09-6.55-.19-10.27-2s-5.56-4.13-8.83-8.32c-5.7-7.29-9.33-15.2-8.83-15.5.31-.19 2.42 2.33 3.9 4.93 1.14 2 1.57 3.44 1.75 3.39s-.25-3.51-1.44-6.57c-2.44-6.29-7.38-9.32-7.08-9.65s3.25 1.44 5.85 4.41c1.83 2.09 2.51 3.74 2.87 3.59s0-3.05-1.33-5.65a17.47 17.47 0 0 0-3.9-4.72c-5.16-5-7.74-7.57-7.49-7.9s2.55.8 4.41 2.16c2.34 1.7 3.26 3.23 3.49 3.08s-1-4.25-4.31-7.49c-3.61-3.56-8-4.64-7.9-4.83s3.39.13 6.47 2.05c1.46.91 2.35 1.83 2.57 1.64s-1-2.44-2.36-4.21c-3.29-4.22-6.32-5.11-12-9.55-1.65-1.29-4.83-2.35-4.8-4.12 0-.54.3-1 .4-2.24a9.67 9.67 0 0 0-.11-2.45c-.56-2.69-.68-14.01-.56-20.05.15-7.92.78-15.79.78-15.79a33.53 33.53 0 0 0-.56-11.23 23.13 23.13 0 0 0-2.89-6.56L154 29.27a68.03 68.03 0 0 0-1.89-2.45c-2.11-1.64-8.43 1.26-12.24 6-1 1.27-.64 1.16-2.45 3.67a62.16 62.16 0 0 1-5.78 6.9 76.46 76.46 0 0 1-6.79 6.12c-5.83 4.85-6.44 4.58-9.12 7.45s-4.16 4.46-5.12 6.23c-.44.81-1 2-1.33 1.89-.66-.17.17-4.78-.33-4.89s-1.52 3.88-2 3.78c-.32-.07-.43-2 .07-3.8s1.35-2.76 1-3.06-1.33.13-2 .82c-1.59 1.59-1.19 4.62-1.09 5.3a3.85 3.85 0 0 1 .11.87 5.18 5.18 0 0 1-.93-3.17c.08-2.2 1.79-3.49 1.48-3.83s-1.89.29-2.9 1.59c-2 2.54-.72 6.66-.82 6.67s-.71-5.36-1.26-5.36-.6 4.37-1.09 4.37-1-2.15-.49-4.26c.29-1.15.87-2 .71-2.13s-1.65 1.8-2 1.59.87-2.56.33-3c-.35-.25-1.44.35-2.08 1.26-1.15 1.64-.49 3.83-.82 3.88s-.55-.77-.71-1.42-.11-1.13-.22-1.15-.35 1.09-1.2 2.3c-.3.42-.55.76-.77.71-.38-.08-.19-1.21-.6-2.62-.49-1.53-1.5-2.76-1.67-2.69a13.4 13.4 0 0 0 .49 2.24c.15.72.5 2.47.22 2.57s-.73-.84-1.15-1.59a14.55 14.55 0 0 0-1.64-2.84c-.16-.18-.85-1-1.09-.82s0 1 .38 2.19a22.23 22.23 0 0 1 .79 2.46c0 .26 0 .2.16 2 .12 1.47.15 1.72.05 1.75-.29.1-1.27-2-1.64-2.73-1.2-2.52-1.58-3.93-1.8-3.88-.47.09.72 6.13-.16 6.4s-2.86-4.62-3.33-4.43.94 4.3.6 4.43-2.67-6.43-3.77-6.18c-.77.17-1.2 3.77.33 6.29.51.84 1.15 1.4 1.08 1.46a18 18 0 0 1-3.9-3.52c-1.89-2.1-1.74-2.57-3.22-4.29-.67-.78-1.42-1.53-6.35-5.05s-4.35-2.91-5.51-3.9a38.52 38.52 0 0 1-5.92-6.4c-1.54-2.09-1.15-2-2.14-3.14-2.28-2.62-4.89-3.77-7.66-5a15.27 15.27 0 0 0-5.74-1.68 8.22 8.22 0 0 0-4.13.46c-2 .95-3 3-3.71 4.79a55 55 0 0 0-3.37 14 63.74 63.74 0 0 0-.67 11.46 73.53 73.53 0 0 0 1.08 8.63 18.74 18.74 0 0 0 1.62 5.66c.44 1.01.49.89 1.33 2.37z"
        fill="none" stroke="#fff" stroke-dasharray=" 0 800" stroke-dashoffset="100" stroke-width="1.5">
      <animate attributeName="stroke-dasharray" from="0 800" to="800 0" begin="0" dur="1.4s" fill="freeze"></animate>
</path>
  <path d="M133.38 291.58c.8 9.36 1.23 18.82 2.38 28.07 1.35 9.13 5.37 17.72 10.19 25.54 2.55 3.83 5.46 7.61 8.12 11.49 1.35 1.94 2.69 3.84 4.07 5.75s2.77 3.81 4.06 5.84a43.51 43.51 0 0 1 3.27 6.39 59.86 59.86 0 0 0 2.86 6.38 46 46 0 0 0 8.41 11.12l-.31.34a46.79 46.79 0 0 1-9.11-10.87 57.3 57.3 0 0 1-3.16-6.37 41.92 41.92 0 0 0-3.38-6l-16.86-22.65a58.64 58.64 0 0 1-3.65-6.19 63.81 63.81 0 0 1-3-6.53 61.05 61.05 0 0 1-2.17-6.85 46.5 46.5 0 0 1-1.29-7.08c-.44-4.75-.57-9.44-.77-14.15s-.28-9.42-.39-14.12zM358.44 290.18l3.65 10.61c1.26 3.52 2.66 7 4.14 10.42 3 6.85 6.26 13.58 9.44 20.37l9.49 20.34a333.28 333.28 0 0 0 10.56 19.75 163.37 163.37 0 0 0 12.48 18.47 47.86 47.86 0 0 0 7.75 7.79 58.11 58.11 0 0 0 9.4 5.81c6.59 3.53 13.28 6.91 19.92 10.38 3.27 1.78 6.75 3.11 10.14 4.79a40.69 40.69 0 0 1 9.38 6.25l-.12.15a43.87 43.87 0 0 0-9.59-5.69c-3.39-1.5-7-2.66-10.37-4.39l-10.13-4.88c-3.38-1.63-6.77-3.22-10.09-5-1.67-.87-3.33-1.74-5-2.69a40.07 40.07 0 0 1-4.77-3.2 49.9 49.9 0 0 1-8.16-8c-2.42-2.94-4.6-6-6.7-9.14s-4.08-6.35-6-9.6a329.63 329.63 0 0 1-10.54-19.93c-1.67-3.42-3.11-6.85-4.65-10.27l-4.59-10.25-4.55-10.27c-1.54-3.42-3.05-6.86-4.43-10.36s-2.69-7-3.85-10.59L358 290.31zM441.31 186.43A64.52 64.52 0 0 1 448 190a35.9 35.9 0 0 1 3.14 2.17c.5.4 1 .81 1.46 1.26s.9.92 1.34 1.36c.88.88 1.7 1.83 2.63 2.66l2.83 2.45c1.89 1.66 4 2.9 6.09 4.42a21.6 21.6 0 0 1 5.36 5.68 1 1 0 0 1 .07.24.7.7 0 0 1-.11.53.71.71 0 0 1-.6.27.82.82 0 0 1-.29-.07 3.11 3.11 0 0 1-.52-.28l-.8-.52a18 18 0 0 0-1.58-.92 13.43 13.43 0 0 0-3.4-1.22 29.48 29.48 0 0 1-3.71-1l-.9-.3-.44-.14-.18-.05c.06 0-.22.08.31-.08.36-1.56-.06-.61.07-.89.44.24 1.1.52 1.64.79a40.84 40.84 0 0 1 6.58 3.89 29 29 0 0 1 5.58 5.28 30.68 30.68 0 0 1 2.23 3.14 13.93 13.93 0 0 1 .93 1.74 4.14 4.14 0 0 1 .32 1.06 1.17 1.17 0 0 1 0 .36.9.9 0 0 1-.16.48.79.79 0 0 1-.57.39 1.12 1.12 0 0 1-.45 0 9.22 9.22 0 0 1-1.86-.86c-.56-.31-1.11-.63-1.65-1a155.7 155.7 0 0 1-3.22-2l-3.18-2-1.58-1-.39-.23-.18-.1h.05c.63 0 .53-1.09.47-.78l.13.14.32.31 5.56 5.09a65.23 65.23 0 0 1 5.41 5.36 31.34 31.34 0 0 1 4.23 6.4 28.56 28.56 0 0 1 1.52 3.55 7 7 0 0 1 .26 1 2.42 2.42 0 0 1 0 .63 1 1 0 0 1-.2.52.83.83 0 0 1-.67.31 1.68 1.68 0 0 1-.71-.24 4.3 4.3 0 0 1-.45-.3c-.28-.21-.52-.42-.77-.64-1-.88-1.82-1.81-2.68-2.74s-1.7-1.91-2.48-2.89a10.36 10.36 0 0 0-1.2-1.32 8.77 8.77 0 0 0-1.45-1 9.53 9.53 0 0 0-3.31-1.18 2.41 2.41 0 0 0-.36 0h-.11l.1-.08a.42.42 0 0 0 .06-.3 3 3 0 0 0 .25.29l1.32 1.34a21.67 21.67 0 0 1 2.46 3c1.43 2.09 2.81 4.19 4.21 6.28l2.11 3.18a32.92 32.92 0 0 1 1.7 3.44 32 32 0 0 1 1.3 3.62 18.24 18.24 0 0 1 .45 1.9 6.5 6.5 0 0 1 .11 1 2.13 2.13 0 0 1 0 .32 1 1 0 0 1-.19.5.7.7 0 0 1-.61.27.84.84 0 0 1-.38-.14 1.69 1.69 0 0 1-.28-.24 13.44 13.44 0 0 1-1.18-1.61l-1-1.6-2-3.21-1.94-3.25-.48-.8-.24-.36s-.09-.11 0-.06c-.18.35 1.17-.19.88-.4 0-.09 0-.06 0 0 .13.47.4 1.12.61 1.69a88.68 88.68 0 0 1 4.66 14.45 50 50 0 0 1 .6 3.77 34.5 34.5 0 0 1 .35 3.85 2.68 2.68 0 0 1 0 .31 1.12 1.12 0 0 1-.06.25c.08.12-.64.73-1.07.22a1.1 1.1 0 0 1-.11-.36l-.06-.15-.08-.25-.26-.9c-.18-.59-.37-1.16-.61-1.73a15.14 15.14 0 0 0-1.76-3.17 15.5 15.5 0 0 0-1.14-1.41c-.2-.22-.41-.43-.63-.63a3.87 3.87 0 0 0-.31-.26l-.11-.07a.21.21 0 0 0 .08 0c.21.14.62-.34.58-.48s0-.07 0-.05l.08.18.2.4.45.82.91 1.66a64.29 64.29 0 0 1 3.41 6.82 26.47 26.47 0 0 1 1.14 3.7 5.22 5.22 0 0 1 .08.53 2 2 0 0 1 0 .33.85.85 0 0 1 0 .25.72.72 0 0 1-.29.42.7.7 0 0 1-.64.09.88.88 0 0 1-.23-.12l-.18-.13-.1-.11a4.44 4.44 0 0 1-.36-.41c-.41-.54-.75-1.07-1.09-1.62l-1-1.63-.48-.82-.24-.4-.11-.18c-.15-.31.41.93 1.05-.39 0-.17 0 0 0 0l1.1 3.59c6.45 19.28 6.44 39.91 10 59.5.57 2.46 1.2 4.89 1.7 7.38.24 1.22.54 2.43.85 3.65.15.61.31 1.21.45 1.87V341.72a1 1 0 0 1 0 .32c.15.46-1.19.59-1.07.32a1.06 1.06 0 0 1-.18-.2 2.84 2.84 0 0 1-.16-.26c-.17-.31-.3-.59-.44-.88-.27-.57-.53-1.14-.81-1.67a6.33 6.33 0 0 0-.44-.73l-.1-.12s-.06 0 0 0a.49.49 0 0 0 .3 0 .46.46 0 0 0 .2-.14c0-.06 0 0 0 0a6.5 6.5 0 0 0 0 1.67 13.45 13.45 0 0 0 .28 1.78 15.43 15.43 0 0 0 1.24 3.4c.27.55.57 1.08.88 1.65a4.73 4.73 0 0 1 .24.49 1 1 0 0 1 .07.59.73.73 0 0 1-.59.55.91.91 0 0 1-.38 0 3.25 3.25 0 0 1-1-.64 9.43 9.43 0 0 1-2-2.29l-.24-.38v-.05l.13.09c.13.09.75-.1.69-.19s0-.09 0-.09a3 3 0 0 0 0 .72 6.94 6.94 0 0 0 .18.85 6.53 6.53 0 0 0 .65 1.59c.27.49.71.93 1.05 1.63a4.22 4.22 0 0 1 .38 2.16c-.08.72-.22 1.27-.22 1.84a7.12 7.12 0 0 0 .19 1.72c.26 1.18.65 2.37 1 3.57s.77 2.39 1.17 3.57a90.55 90.55 0 0 0 2.74 7 49.59 49.59 0 0 0 3.39 6.63l1 1.51.58.73a9.85 9.85 0 0 1 .62.83c-.15.15.51-.12-.24 1-1 .09-.53-.1-.74-.09a2.8 2.8 0 0 1-.24-.19l-.37-.34-.69-.66-1.35-1.31c-.45-.43-.91-.86-1.36-1.23a2.43 2.43 0 0 0-.29-.2h.07s.54 0 .59-.34 0-.19 0-.24a5.92 5.92 0 0 0 .37.74c.6 1.06 1.29 2.13 2 3.17a16 16 0 0 1 1 1.7 1.31 1.31 0 0 1 .11.88 1 1 0 0 1-.39.54 1.3 1.3 0 0 1-.44.18 3.14 3.14 0 0 1-1.18 0c-.33-.06-.65-.14-.94-.21h-.19c0-.06.08.16.47-.35.11-.61-.13-.58-.1-.61l.16.11c.51.31 1.09.64 1.62 1a16.91 16.91 0 0 1 1.56 1.18c.24.21.49.41.75.68a1.9 1.9 0 0 1 .41.57.89.89 0 0 1 0 .75.93.93 0 0 1-.52.45 3 3 0 0 1-1.21.09c-.34 0-.66-.07-1-.11-.63-.09-1.26-.2-1.82-.24a1.86 1.86 0 0 0-.34 0l.13-.09a.49.49 0 0 0 .15-.35.29.29 0 0 0 0-.15 2.4 2.4 0 0 0 .47.41 7.56 7.56 0 0 0 1.53.82 9.1 9.1 0 0 0 3.46.61h1.2c.08-.61 1.16 1.62.12 1.28h-.66a14.47 14.47 0 0 0-1.79.25 2.07 2.07 0 0 0-.62.21.21.21 0 0 0 .05-.09 1.13 1.13 0 0 0 0-.14v-.1l.12.1c.41.32 1 .56 1.61 1.07a1.52 1.52 0 0 1 .46.65 1.08 1.08 0 0 1-.24 1.06 2.65 2.65 0 0 1-1.1.59c-.32.1-.63.18-.87.27s-.23.13-.14 0a.56.56 0 0 0 .08-.17.43.43 0 0 0 0-.21v-.05a2.1 2.1 0 0 0 1.31.34 2.16 2.16 0 0 0 1.32-.63l.22-.19c-.49-.78 1.42.7.92.83a1.48 1.48 0 0 1-.13.16l-.34.37-.64.67c-.21.22-.41.45-.57.67a1.89 1.89 0 0 0-.18.28v-.13a.46.46 0 0 0-.22-.3.37.37 0 0 0-.13 0 3.79 3.79 0 0 1 .44 0 2.06 2.06 0 0 1 .65.14 2.54 2.54 0 0 1 1 .74 10.07 10.07 0 0 1 1.07 1.7l.89 1.66a17.47 17.47 0 0 1 .84 1.76 20.49 20.49 0 0 0 1.65 3.28 33.26 33.26 0 0 0 5 5.43 142.9 142.9 0 0 0 5.65 5l11.49 9.83c1 .81 1.86 1.67 2.84 2.45a13.45 13.45 0 0 0 3.16 1.92 14.57 14.57 0 0 0 7.31 1v.22a14.91 14.91 0 0 1-7.51-.84 13.94 13.94 0 0 1-3.33-1.9c-1-.77-2-1.62-2.95-2.4l-11.64-9.59a108.97 108.97 0 0 1-8.52-7.53 18.54 18.54 0 0 1-2.49-3 21.58 21.58 0 0 1-1.77-3.44 16.28 16.28 0 0 0-.8-1.65l-.9-1.66a9.16 9.16 0 0 0-.94-1.48 1.38 1.38 0 0 0-.52-.41.87.87 0 0 0-.27-.06h-.5a.87.87 0 0 1-.36-.11.75.75 0 0 1-.35-.49 1 1 0 0 1 .08-.59 2.88 2.88 0 0 1 .31-.52c.21-.28.43-.53.65-.77l.66-.7.3-.32c-.41 0 1.36 1.52.82.8l-.14.12a3.39 3.39 0 0 1-2 .95 3.52 3.52 0 0 1-1.14-.11 2.61 2.61 0 0 1-1.11-.55 1.13 1.13 0 0 1-.3-.43.81.81 0 0 1 0-.44.77.77 0 0 1 .18-.38 1.52 1.52 0 0 1 .67-.42c.35-.13.65-.2.93-.29a2 2 0 0 0 .57-.25s-.08.15 0 .2 0 0-.1-.1c-.35-.31-.94-.57-1.53-1a1.56 1.56 0 0 1-.51-.59.89.89 0 0 1 0-.69 1 1 0 0 1 .34-.47 2.85 2.85 0 0 1 1.13-.46 15.54 15.54 0 0 1 1.95-.27h.51c-.91-.36.14 1.81.11 1.22h-1.18a10.36 10.36 0 0 1-3.93-.7 8.79 8.79 0 0 1-1.79-1 4.43 4.43 0 0 1-.43-.34 1.9 1.9 0 0 1-.45-.55.94.94 0 0 1-.09-.37.77.77 0 0 1 .22-.57 1 1 0 0 1 .57-.26 2.92 2.92 0 0 1 .6 0c.69 0 1.31.16 1.92.25.31 0 .61.08.9.11a2.45 2.45 0 0 0 .66 0s-.07 0-.16.17a.41.41 0 0 0 0 .29 1.23 1.23 0 0 0-.15-.18c-.18-.19-.42-.39-.65-.59a15.62 15.62 0 0 0-1.45-1.09c-.51-.34-1-.64-1.59-1l-.23-.15-.15-.12c0-.09-.33-.12-.2-.81.45-.58.59-.35.69-.41h.2l.27.05.91.2a2.2 2.2 0 0 0 .69.05.26.26 0 0 0-.12.16c0 .15 0 .06-.05 0a16.51 16.51 0 0 0-.94-1.51 65.58 65.58 0 0 1-2-3.25 6.67 6.67 0 0 1-.46-1 .92.92 0 0 1 0-.66c.07-.39.75-.49.78-.42a1 1 0 0 1 .29.1 3.3 3.3 0 0 1 .49.33c.53.43 1 .86 1.45 1.3l1.36 1.32.67.65.33.3.13.1c-.14 0 .36-.08-.53 0-.69 1-.1.68-.29.77-.1-.15-.33-.44-.52-.67l-.59-.75c-.4-.51-.76-1.06-1.1-1.6a50.75 50.75 0 0 1-3.48-6.8c-1-2.32-2-4.68-2.78-7.08-.41-1.2-.8-2.4-1.18-3.6s-.78-2.4-1.06-3.68a8.36 8.36 0 0 1-.21-2c0-.69.18-1.38.23-1.91a3 3 0 0 0-.26-1.52c-.2-.44-.64-.92-1-1.53a7.76 7.76 0 0 1-.78-1.89 8.17 8.17 0 0 1-.21-1 3.65 3.65 0 0 1 0-1.16.94.94 0 0 1 .12-.31c0-.16.63-.48.89-.26a.85.85 0 0 1 .3.25l.1.14.26.42a8.2 8.2 0 0 0 1.71 2 3 3 0 0 0 .56.4.39.39 0 0 0-.15 0c-.17 0-.43.27-.44.4s0 .15 0 .13a3.79 3.79 0 0 0-.17-.36c-.29-.53-.61-1.1-.9-1.68a16.67 16.67 0 0 1-1.34-3.68 14.69 14.69 0 0 1-.31-1.95 7.12 7.12 0 0 1 0-2.09 1.23 1.23 0 0 1 .19-.43.77.77 0 0 1 .9-.28 1.11 1.11 0 0 1 .42.29 2.54 2.54 0 0 1 .2.24 7.38 7.38 0 0 1 .53.89c.3.58.57 1.16.84 1.72.13.28.27.57.4.81l.09.15c.17-.2-1.06-.08-.91.29v.08-.27c-.12-.58-.28-1.2-.43-1.81-.3-1.22-.61-2.46-.86-3.7-.49-2.45-1.12-4.89-1.69-7.34-2.14-10-2.42-20-4-30-.17-1.24-.31-2.49-.5-3.74l-.6-3.72-1.05-7.58a150 150 0 0 0-3.75-14.56l-1.11-3.63a1.1 1.1 0 0 1 0-.26c.62-1.43 1.28 0 1.16-.29l.14.22.24.41.47.81 1 1.6c.33.52.66 1.05 1 1.51a3.37 3.37 0 0 0 .26.3l.06.06a.53.53 0 0 0-.42.06.54.54 0 0 0-.18.22.87.87 0 0 0 0-.14c0-.12 0-.26-.06-.4a25.51 25.51 0 0 0-1.09-3.5 63.47 63.47 0 0 0-3.35-6.68l-.91-1.66-.45-.84-.22-.44-.11-.25a1.07 1.07 0 0 1-.1-.5c-.05-.23.44-.75.74-.61a1.11 1.11 0 0 1 .31.1 2 2 0 0 1 .29.18 5 5 0 0 1 .42.34c.25.23.48.47.71.71a16.69 16.69 0 0 1 1.23 1.52 16.35 16.35 0 0 1 1.89 3.42c.25.6.46 1.22.64 1.84l.26.91.06.2v.07a.23.23 0 0 0-.06-.07c-.36-.45-1 .12-.9.16s0-.1 0-.16a34.4 34.4 0 0 0-.34-3.67 56.67 56.67 0 0 0-.59-3.69 87.6 87.6 0 0 0-4.6-14.26c-.23-.61-.46-1.12-.67-1.87a1 1 0 0 1 0-.28c-.31-.32 1.17-.86 1-.44a1.61 1.61 0 0 1 .27.3l.28.43.49.82 1.93 3.24 2 3.2 1 1.58a13.16 13.16 0 0 0 1 1.44l.08.07a.3.3 0 0 0-.16 0 .47.47 0 0 0-.41.17c-.08.12 0 .1 0 .06a1 1 0 0 0 0-.15 5.46 5.46 0 0 0-.09-.84 17.11 17.11 0 0 0-.42-1.77 30.82 30.82 0 0 0-1.25-3.48 31.74 31.74 0 0 0-1.64-3.32l-2.07-3.11c-1.4-2.09-2.78-4.21-4.19-6.27a20.43 20.43 0 0 0-2.34-2.83l-1.45-1.35a4 4 0 0 1-.36-.42 1.29 1.29 0 0 1-.19-.37.91.91 0 0 1 0-.35.78.78 0 0 1 .16-.39 1.12 1.12 0 0 1 .84-.4 3.48 3.48 0 0 1 .58 0 10.58 10.58 0 0 1 3.77 1.33 9.9 9.9 0 0 1 1.65 1.14 11.44 11.44 0 0 1 1.34 1.46c.78 1 1.58 1.92 2.43 2.84s1.7 1.84 2.6 2.66c.23.2.45.4.68.57a2.86 2.86 0 0 0 .5.31c-.07 0-.19.05-.26.12s0 .05 0 .08a1.49 1.49 0 0 0 0-.31 6 6 0 0 0-.22-.83 27.54 27.54 0 0 0-1.45-3.39 30.16 30.16 0 0 0-4.07-6.17 64.36 64.36 0 0 0-5.31-5.26l-5.58-5.1-.35-.35-.19-.21a1.21 1.21 0 0 1-.12-.18c-.12.24-.23-.94.51-.94a1.06 1.06 0 0 1 .49.15l.24.13.42.25 1.6 1 3.17 2 3.2 2c.54.32 1.07.64 1.61.94a9.13 9.13 0 0 0 1.55.74s.08 0 0 0a.48.48 0 0 0-.21.12c0 .07 0 .06 0 0v-.11a3.15 3.15 0 0 0-.23-.74 12.87 12.87 0 0 0-.85-1.59 29.56 29.56 0 0 0-2.14-3 27.87 27.87 0 0 0-5.36-5.07 39.7 39.7 0 0 0-6.4-3.78c-.58-.29-1.09-.49-1.76-.85.09-.33-.46.58-.06-1 .6-.18.41 0 .54-.06l.27.08.46.15.89.3a28.28 28.28 0 0 0 3.59.94 14.57 14.57 0 0 1 3.68 1.32 19.11 19.11 0 0 1 1.68 1l.79.51a2.56 2.56 0 0 0 .31.18h-.06c-.06 0-.31 0-.39.21a.41.41 0 0 0-.08.3 11 11 0 0 0-1-1.39q-.57-.72-1.21-1.37a29.23 29.23 0 0 0-2.77-2.44c-1-.74-2-1.4-3.09-2.14a34.17 34.17 0 0 1-3-2.36L456 198.1c-.94-.85-1.76-1.83-2.64-2.75a25.92 25.92 0 0 0-5.59-4.89c-2.06-1.42-4.23-2.7-6.41-4zM35.56 37.55a10.85 10.85 0 0 1 3.19-.72 7.05 7.05 0 0 1 3.28.61 6.69 6.69 0 0 1 2.48 2.28l1.93 2.58c1.28 1.72 2.72 3.32 4.07 5l4.12 5 2.06 2.49a11 11 0 0 1 1 1.37c.3.47.58.94.85 1.43A46.73 46.73 0 0 1 61 63.61a34 34 0 0 0 6.81 10.61l-.25.26a25.11 25.11 0 0 1-7.84-10.37 46 46 0 0 0-2.4-5.89c-.24-.46-.51-.91-.78-1.35a9.53 9.53 0 0 0-.89-1.24l-2-2.51-4-5.08c-1.31-1.71-2.71-3.35-3.95-5.13l-1.82-2.66a6.35 6.35 0 0 0-2.1-2.16 8.27 8.27 0 0 0-6.1-.35zM154 35.23a5.2 5.2 0 0 0-2.16-2.68 4.58 4.58 0 0 0-3.33-.39 11.18 11.18 0 0 0-3.24 1.36 11.68 11.68 0 0 0-2.58 2.4c-1.52 1.85-2.88 3.9-4.28 5.9s-2.71 4-4.09 6.1a51.86 51.86 0 0 1-4.76 5.69 18.89 18.89 0 0 0-2.23 2.75c-.64 1-1.18 2.08-1.78 3.13a18.13 18.13 0 0 0-1.46 3.23 22 22 0 0 0-.71 3.5 7.28 7.28 0 0 1-1.26 3.62 5.68 5.68 0 0 1-3.25 1.94l-.1-.34a5.36 5.36 0 0 0 2.77-2 6.65 6.65 0 0 0 .88-3.31 18.43 18.43 0 0 1 .58-3.73 19.32 19.32 0 0 1 1.41-3.51c.55-1.1 1.1-2.19 1.79-3.28a20.28 20.28 0 0 1 2.35-3c1.64-1.8 3.25-3.62 4.68-5.53s2.75-4.05 4.22-6 2.89-4 4.53-5.83a12.56 12.56 0 0 1 2.86-2.48 11.9 11.9 0 0 1 3.54-1.35 5.07 5.07 0 0 1 3.76.62 5.65 5.65 0 0 1 2.21 3z"  stroke="#fff"/>
</svg>
